<?xml version="1.0" standalone="no"?>
<!DOCTYPE svg PUBLIC "-//W3C//DTD SVG 20010904//EN"
 "http://www.w3.org/TR/2001/REC-SVG-20010904/DTD/svg10.dtd">
<svg version="1.0" xmlns="http://www.w3.org/2000/svg"
 width="1800.000000pt" height="713.000000pt" viewBox="0 0 1800.000000 713.000000"
 preserveAspectRatio="xMidYMid meet">
<metadata>
Created by potrace 1.16, written by Peter Selinger 2001-2019
</metadata>
<g transform="translate(0.000000,713.000000) scale(0.100000,-0.100000)"
fill="#000000" stroke="none">
<path d="M11411 7088 c-17 -24 -81 -96 -143 -161 -124 -130 -132 -134 -265
-142 -78 -5 -127 -19 -178 -50 -22 -13 -59 -34 -82 -45 -72 -37 -73 -43 -7
-110 64 -64 124 -132 165 -186 15 -19 45 -48 68 -64 24 -18 50 -49 62 -75 27
-56 165 -187 232 -218 27 -12 45 -27 43 -34 -3 -7 13 -26 34 -43 22 -18 40
-39 40 -48 0 -10 25 -34 55 -55 30 -21 100 -87 157 -148 101 -107 181 -170
198 -153 21 21 5 298 -18 327 -7 8 -26 77 -42 153 -16 77 -36 166 -45 199 -8
33 -17 72 -20 86 -4 25 -6 26 -52 18 -27 -4 -63 -13 -81 -19 -18 -7 -36 -10
-39 -7 -14 15 -19 88 -8 124 7 21 25 88 39 148 15 61 31 122 35 137 20 62 -3
279 -35 335 -13 23 -24 49 -24 57 0 11 -9 16 -30 16 -23 0 -35 -9 -59 -42z"/>
<path d="M12720 7127 c0 -2 -13 -67 -30 -144 -16 -76 -36 -189 -44 -249 -8
-60 -24 -152 -36 -204 -18 -82 -21 -120 -18 -277 2 -132 0 -185 -9 -194 -8 -8
-9 -18 -3 -29 5 -10 9 -53 7 -96 -1 -44 4 -99 10 -124 30 -113 63 -269 63
-299 0 -33 -15 -70 -34 -84 -7 -6 -5 -7 5 -4 10 3 26 -4 37 -16 21 -23 29 -93
37 -322 2 -59 10 -110 24 -148 28 -80 35 -187 13 -204 -10 -7 -12 -13 -7 -12
22 3 29 -2 15 -11 -11 -7 -40 4 -105 39 -49 26 -116 58 -149 70 -83 31 -125
63 -267 202 -68 68 -158 153 -198 189 -40 36 -95 90 -120 121 l-47 56 -40 -29
c-55 -40 -280 -263 -333 -329 l-44 -54 54 55 c78 79 164 150 183 150 10 0 16
8 16 21 0 17 3 19 13 11 7 -6 30 -10 50 -8 23 2 43 -2 51 -10 8 -7 17 -10 20
-6 4 3 4 0 1 -8 -3 -10 7 -22 30 -35 26 -13 35 -24 32 -37 -3 -10 -1 -21 4
-24 5 -3 9 -1 9 3 0 5 9 9 21 9 16 0 20 -5 16 -23 -3 -15 1 -23 10 -23 8 0 11
5 8 10 -3 6 1 10 11 10 11 0 15 -6 11 -19 -4 -16 0 -18 22 -16 33 4 45 -3 32
-18 -7 -9 1 -12 30 -11 25 1 39 -2 38 -10 -3 -25 2 -37 13 -30 7 5 9 1 6 -13
-4 -16 -1 -19 18 -15 18 3 26 -1 33 -19 5 -15 5 -29 -1 -36 -7 -9 -7 -13 2
-13 10 0 9 -4 -1 -17 -7 -10 -9 -15 -5 -11 5 4 15 0 22 -10 9 -11 13 -13 14
-4 0 10 3 10 14 0 8 -8 10 -17 5 -24 -5 -6 3 -17 21 -28 28 -16 35 -14 31 8
-1 5 5 6 14 2 9 -3 19 -6 21 -6 13 0 1 -20 -15 -25 -13 -4 -18 -12 -14 -22 5
-14 7 -14 15 1 5 9 14 16 19 16 6 0 8 -4 5 -9 -8 -12 23 -26 67 -29 10 -1 17
-8 15 -14 -2 -7 2 -13 7 -13 6 0 9 4 7 8 -1 4 7 3 18 -3 11 -6 20 -8 20 -5 0
4 7 -1 16 -9 8 -9 23 -16 32 -17 11 0 12 -2 5 -6 -18 -7 -16 -23 2 -23 8 0 14
-6 13 -12 -3 -12 2 -14 47 -17 16 -1 17 -3 5 -10 -8 -6 -18 -7 -22 -5 -4 3 -8
1 -8 -4 0 -6 -14 3 -31 19 -32 30 -59 40 -43 16 5 -7 2 -5 -8 5 -9 10 -22 18
-29 18 -8 0 -5 5 6 13 20 16 4 34 -17 20 -7 -4 -22 -7 -33 -5 -17 2 -17 1 3
-8 22 -9 26 -19 22 -55 -1 -15 1 -17 10 -8 14 13 43 6 34 -8 -3 -5 2 -6 11 -3
9 4 23 -3 35 -16 25 -29 83 -36 75 -10 -3 11 1 20 11 24 14 5 14 9 3 24 -12
15 -12 16 2 5 8 -7 24 -14 35 -16 10 -1 25 -6 32 -10 6 -5 12 -5 12 -1 0 3 7
1 15 -6 8 -7 21 -10 30 -7 8 4 19 -1 24 -10 8 -14 12 -15 25 -4 9 7 16 9 16 3
0 -16 54 -11 82 9 l27 19 24 -32 c33 -44 63 -105 72 -147 4 -19 20 -66 36
-105 16 -38 27 -72 25 -74 -3 -2 -14 1 -25 8 -17 9 -21 8 -21 -4 0 -9 6 -13
13 -10 26 10 91 -77 120 -161 16 -44 36 -101 46 -126 24 -62 133 -212 142
-197 4 7 5 16 3 20 -3 4 4 18 16 30 l20 22 -27 11 c-34 15 -41 23 -84 105 -19
36 -37 67 -40 70 -12 10 -29 77 -34 133 -4 45 -2 59 10 63 8 4 15 12 15 20 0
8 10 14 21 14 20 0 21 -1 5 -25 -9 -13 -16 -29 -16 -34 0 -17 25 -2 35 22 6
13 21 23 38 25 15 2 25 7 22 12 -3 5 -1 11 5 15 5 3 10 0 10 -7 0 -7 17 18 37
56 21 39 45 71 56 74 10 3 15 8 10 11 -18 12 -43 74 -35 85 16 21 10 54 -14
77 -13 12 -24 18 -24 12 0 -6 6 -14 13 -17 8 -4 7 -5 -3 -5 -28 2 -40 -1 -40
-10 0 -5 10 -7 23 -4 17 4 19 3 11 -6 -15 -17 -84 -15 -84 1 0 5 9 6 20 3 12
-4 20 -2 20 6 0 6 8 18 18 25 15 12 15 15 2 23 -8 6 -11 13 -7 17 3 4 13 1 22
-6 10 -8 15 -9 15 -1 0 6 -4 11 -10 11 -18 0 -10 36 13 58 l24 22 19 -22 c10
-12 13 -18 7 -14 -7 4 -13 2 -13 -3 0 -6 5 -11 10 -11 19 0 10 -17 -16 -29
-21 -9 -24 -14 -14 -26 17 -21 25 -19 38 11 7 14 17 22 22 19 9 -5 15 14 12
37 -1 3 5 12 13 18 8 7 15 20 15 29 0 10 6 26 14 36 8 11 11 26 8 34 -4 10 -1
12 8 6 9 -6 12 -4 8 6 -5 15 26 51 36 42 6 -6 10 17 8 47 0 10 5 8 18 -7 10
-13 22 -23 26 -23 4 0 -1 9 -11 20 -14 16 -15 22 -5 35 9 11 17 12 32 4 12 -6
18 -7 14 -1 -3 5 1 15 10 22 12 11 12 15 2 21 -9 6 -9 9 -1 9 13 0 12 38 -1
59 -6 9 -2 12 10 11 32 -4 36 -1 22 15 -34 37 -35 41 -22 53 7 7 19 12 26 12
7 0 5 -5 -6 -11 -14 -9 -15 -13 -6 -19 20 -12 40 14 34 44 -2 15 0 26 7 26 6
0 4 7 -5 15 -17 18 -30 20 -20 4 7 -12 -12 -29 -33 -29 -7 0 -13 5 -13 11 0 6
7 9 15 5 10 -4 15 1 15 14 0 11 12 27 26 36 22 15 27 15 36 3 7 -10 8 -9 3 6
-14 40 -18 60 -9 52 4 -4 13 2 20 14 l12 22 12 -23 c10 -19 10 -22 -3 -17 -12
4 -12 1 -3 -18 6 -13 14 -19 17 -13 9 15 14 14 33 -1 13 -11 14 -16 4 -23 -8
-5 -3 -7 14 -4 17 3 28 -1 32 -10 3 -9 1 -12 -4 -9 -15 9 -12 -5 5 -21 8 -9
15 -11 15 -5 0 13 27 3 51 -18 62 -56 79 -77 79 -93 0 -19 -17 -58 -29 -68 -3
-3 -15 -21 -25 -40 -11 -19 -34 -57 -51 -85 -229 -357 -281 -458 -245 -480 9
-5 10 -1 5 15 -5 17 -4 21 6 15 9 -6 11 -3 6 8 -7 18 2 22 18 10 6 -5 7 -4 3
1 -12 15 -9 28 3 20 8 -4 9 1 4 17 -6 20 -5 22 6 12 16 -15 33 -17 24 -3 -3 6
-1 10 5 10 7 0 9 7 6 16 -3 8 -2 12 4 9 13 -8 38 17 32 33 -2 8 2 10 14 5 12
-4 15 -3 10 5 -4 7 -2 12 4 12 7 0 9 7 6 16 -6 15 -3 15 21 -1 16 -10 22 -12
16 -4 -18 19 -16 29 5 22 14 -5 15 -3 5 8 -17 17 -17 37 -1 21 17 -17 28 -15
21 5 -4 11 -3 14 5 9 16 -10 15 7 0 23 -11 11 -9 11 10 2 16 -9 22 -9 22 0 0
6 7 8 18 4 14 -5 15 -4 5 6 -20 20 -15 31 7 19 16 -9 18 -8 14 5 -5 12 -2 14
12 8 17 -6 17 -5 5 10 -16 20 -8 22 22 5 20 -10 21 -10 8 5 -8 11 -9 17 -3 17
6 0 9 6 6 14 -6 17 29 31 48 20 7 -4 4 2 -6 14 -23 26 -15 28 20 6 22 -15 24
-15 18 0 -4 9 -1 16 6 16 9 0 6 8 -6 21 l-19 22 32 -17 c30 -15 32 -15 26 1
-5 13 -3 15 12 9 18 -7 18 -6 0 14 -15 17 -16 20 -3 15 12 -5 25 5 45 32 31
41 156 163 316 307 54 49 95 91 93 94 -3 3 -26 -14 -51 -37 -51 -47 -63 -52
-38 -15 16 25 16 26 0 23 -10 -2 -45 -37 -80 -78 -34 -41 -69 -77 -77 -79 -8
-3 -2 9 14 26 15 17 25 35 22 41 -4 6 -1 9 6 6 8 -3 24 8 37 26 29 38 118 134
194 207 31 31 57 62 57 69 0 8 -5 11 -12 7 -7 -4 -8 -3 -4 4 4 6 12 9 19 6 7
-2 21 10 32 28 18 33 18 33 -1 18 -10 -8 -6 0 10 18 16 17 34 29 39 25 6 -3 7
-1 3 5 -8 13 185 205 291 288 66 52 84 72 96 108 13 36 13 45 2 50 -7 2 -21
-4 -31 -15 -10 -11 -48 -40 -84 -64 -39 -26 -129 -110 -222 -208 -123 -129
-175 -175 -234 -211 -43 -26 -79 -44 -81 -42 -3 2 12 21 31 42 20 21 36 41 36
44 0 3 41 42 92 85 178 155 177 154 222 249 24 50 47 102 51 115 10 32 83 126
164 213 35 37 60 68 56 68 -5 0 2 10 14 21 13 12 31 39 41 60 9 22 20 37 23
34 4 -3 5 -2 3 1 -10 13 57 177 128 315 70 135 111 229 100 229 -2 0 -17 -26
-33 -57 -36 -72 -74 -143 -133 -253 -25 -47 -58 -118 -72 -158 -35 -99 -38
-104 -117 -188 -76 -83 -143 -174 -183 -249 -14 -27 -26 -43 -26 -35 0 8 -20
-7 -45 -34 -25 -27 -45 -55 -45 -61 0 -7 -11 -20 -25 -29 -14 -9 -25 -23 -25
-31 0 -9 -10 -19 -23 -24 -13 -5 -31 -27 -41 -49 -10 -22 -28 -45 -41 -52 -12
-7 -29 -23 -36 -36 -7 -13 -16 -24 -21 -24 -4 0 -8 -7 -8 -15 0 -8 -4 -15 -9
-15 -4 0 -29 -30 -54 -67 -25 -38 -82 -115 -126 -173 -45 -58 -81 -110 -81
-116 0 -14 -35 -46 -42 -38 -3 3 -16 -11 -28 -30 -12 -20 -25 -36 -30 -36 -4
0 -15 -17 -24 -37 -9 -21 -40 -64 -69 -96 l-53 -57 -48 56 c-47 54 -258 241
-379 334 -58 45 -58 45 -36 63 12 9 18 17 15 17 -8 0 16 43 49 89 14 19 25 45
25 57 0 13 5 24 10 24 6 0 10 5 10 11 0 5 -4 8 -9 5 -8 -5 -5 18 14 102 4 17
12 22 39 22 19 0 37 -6 39 -12 4 -10 8 -10 15 1 8 11 11 10 15 -5 4 -17 5 -16
6 3 0 12 -3 23 -8 25 -6 2 -6 21 0 48 5 25 12 58 14 73 3 15 9 36 15 46 5 11
11 41 14 67 4 50 33 88 60 78 9 -3 20 16 34 63 20 66 32 123 26 123 -1 0 -34
-46 -72 -102 -77 -115 -168 -279 -227 -410 -31 -68 -46 -90 -69 -99 -30 -13
-176 -182 -176 -204 0 -7 7 -31 15 -54 l14 -41 -76 -113 c-87 -128 -134 -190
-139 -184 -3 2 2 53 11 112 8 60 15 110 15 111 0 2 12 10 28 18 24 12 29 25
45 103 14 65 16 96 8 115 -11 29 -4 90 22 193 9 33 23 107 31 165 22 148 60
388 90 570 14 85 35 216 47 290 11 74 27 160 35 191 8 31 14 84 14 118 l0 61
-184 0 -184 0 -4 -30 c-3 -17 -2 -33 1 -36 3 -3 6 -18 7 -33 0 -15 4 -32 8
-39 10 -16 -2 -34 -17 -25 -8 4 -7 1 1 -9 16 -19 19 -77 6 -86 -5 -4 -9 -23
-8 -42 2 -59 -16 -97 -48 -104 -16 -3 -27 -10 -23 -16 9 -14 -8 -13 -23 2 -9
9 -12 8 -12 -5 0 -16 -2 -16 -25 -1 -14 9 -32 13 -45 9 -14 -5 -20 -2 -20 9 0
9 -4 16 -8 16 -8 0 -35 46 -36 62 -1 4 -9 17 -19 28 -10 12 -15 25 -12 30 4 6
-1 10 -9 10 -10 0 -13 6 -9 17 5 12 3 14 -8 8 -11 -7 -12 -6 -2 6 10 12 9 20
-2 36 -8 12 -12 28 -9 36 3 8 -2 17 -10 20 -9 4 -16 15 -16 25 0 10 -3 22 -7
26 -8 8 -13 31 -15 64 0 21 -4 22 -84 22 -46 0 -84 -2 -84 -3z m280 -2613 c14
-18 30 -34 37 -34 6 0 14 -9 18 -19 3 -11 19 -34 36 -53 17 -18 41 -50 55 -70
22 -34 34 -43 57 -39 15 2 6 -19 -13 -31 -11 -7 -20 -18 -20 -24 0 -18 -29
-12 -36 8 -3 10 -12 18 -21 18 -11 0 -14 7 -9 28 5 22 4 24 -4 9 -6 -9 -16
-15 -21 -11 -14 9 -49 91 -49 116 0 14 -5 18 -15 14 -9 -3 -15 0 -15 8 0 7
-11 35 -25 62 -14 27 -27 54 -29 61 -9 22 27 -6 54 -43z"/>
<path d="M14016 7099 c-3 -17 -6 -45 -6 -61 0 -32 25 -98 37 -98 26 0 85 71
107 128 l25 62 -78 0 -78 0 -7 -31z"/>
<path d="M16375 7110 l-30 -20 25 0 c14 0 34 -7 44 -15 11 -8 15 -15 8 -15 -6
0 -9 -7 -6 -15 4 -8 1 -15 -5 -15 -6 0 -8 -7 -5 -15 4 -10 0 -15 -12 -15 -16
0 -17 -2 -4 -10 8 -5 11 -10 5 -10 -20 -1 44 -30 91 -40 51 -12 138 -22 117
-13 -7 3 -13 14 -13 25 0 21 0 21 -22 2 -22 -19 -22 -19 -8 0 10 13 11 20 4
23 -15 5 -5 49 23 102 12 24 23 46 23 47 0 2 -46 4 -102 4 -86 0 -108 -3 -133
-20z"/>
<path d="M9250 6655 c0 -11 168 -202 195 -222 13 -10 73 -72 133 -138 70 -78
135 -138 181 -169 40 -26 132 -106 206 -177 121 -117 137 -129 170 -129 34 0
35 1 22 20 -8 11 -52 55 -98 97 -92 85 -281 279 -314 321 -11 15 -69 77 -128
137 -60 61 -119 126 -131 145 -36 55 -59 70 -133 90 -37 10 -76 21 -85 25 -10
4 -18 4 -18 0z"/>
<path d="M15664 6484 c14 -71 16 -100 8 -112 -5 -7 -65 -33 -133 -56 -68 -23
-133 -48 -144 -54 -18 -10 -15 -11 20 -12 39 -1 39 -1 16 -14 -18 -10 -20 -15
-10 -19 10 -4 7 -8 -8 -12 -25 -8 -31 -24 -10 -26 6 0 0 -5 -15 -10 -16 -6
-25 -16 -22 -23 3 -8 -2 -16 -11 -20 -9 -3 -14 -10 -10 -15 3 -6 -1 -13 -8
-18 -22 -12 -47 -113 -29 -113 15 0 72 54 64 59 -17 10 245 273 277 278 8 1
20 9 26 17 6 8 24 17 38 20 28 5 87 53 87 71 0 5 -5 2 -11 -7 -5 -9 -15 -15
-23 -12 -7 3 -19 -2 -26 -10 -7 -9 -16 -14 -20 -11 -5 3 -11 1 -15 -5 -14 -22
-20 -8 -16 38 3 36 6 42 12 27 7 -19 8 -19 8 3 1 13 -5 22 -14 22 -8 0 -15 6
-15 14 0 8 -5 18 -11 22 -8 4 -9 -3 -5 -22z"/>
<path d="M16168 5483 c-8 -10 -32 -44 -53 -76 -20 -32 -57 -71 -81 -87 -40
-28 -180 -90 -202 -90 -19 0 -64 -64 -112 -161 -27 -54 -59 -104 -72 -113 -12
-9 -50 -25 -85 -37 -35 -11 -63 -24 -63 -28 0 -11 42 -29 125 -56 110 -36 122
-44 128 -79 2 -17 3 -33 1 -35 -1 -2 -33 -9 -69 -17 -46 -10 -126 -13 -269
-11 l-202 2 -64 -69 c-36 -38 -81 -92 -100 -122 -19 -29 -53 -65 -75 -80 -22
-14 -65 -48 -95 -73 -51 -44 -115 -86 -183 -121 -15 -8 -45 -32 -65 -55 -172
-191 -182 -207 -182 -280 0 -59 28 -112 64 -121 45 -11 268 50 394 107 35 16
66 29 68 29 3 0 20 11 37 24 18 13 45 26 61 30 16 4 41 19 56 35 52 52 123 91
165 91 12 0 42 -7 66 -15 24 -9 74 -20 110 -25 42 -6 94 -23 140 -46 68 -34
81 -37 203 -45 142 -9 208 -18 419 -55 240 -43 354 -54 637 -66 336 -13 483
-11 529 8 18 8 56 14 83 14 52 0 188 36 188 50 0 4 -30 13 -67 20 -152 25
-505 115 -554 141 -21 10 -74 43 -117 72 -43 28 -131 86 -196 127 -65 41 -138
93 -163 115 -91 80 -203 254 -203 313 0 19 -18 66 -44 115 -62 114 -94 218
-101 330 -3 50 -10 148 -16 216 -5 68 -9 128 -9 132 0 15 -16 10 -32 -8z"/>
<path d="M718 5481 c-135 -44 -195 -194 -125 -313 39 -67 103 -103 182 -103
48 0 70 6 107 28 137 80 139 283 4 362 -48 28 -125 40 -168 26z"/>
<path d="M17850 5289 c-74 -28 -178 -66 -230 -86 -52 -20 -138 -51 -190 -69
-52 -18 -147 -56 -210 -84 -229 -104 -524 -231 -628 -271 -35 -13 -68 -32 -73
-41 -10 -18 -2 -48 12 -48 10 0 21 -55 23 -122 l1 -52 50 -12 c121 -28 303
-64 328 -64 42 0 156 34 296 88 69 27 173 67 231 88 58 21 202 75 320 120
l215 82 3 261 c1 144 -1 261 -5 261 -5 -1 -69 -23 -143 -51z"/>
<path d="M10490 5237 c0 -33 159 -224 194 -233 13 -3 45 4 75 18 l52 22 -33
12 c-19 6 -35 7 -39 2 -3 -5 -29 13 -57 39 -41 39 -50 53 -45 74 7 39 -44 79
-103 79 -30 0 -44 -4 -44 -13z"/>
<path d="M13588 3960 c-27 -72 -48 -138 -48 -146 0 -8 -5 -24 -11 -36 -6 -11
-13 -36 -15 -56 l-4 -37 16 28 c8 15 13 31 10 36 -3 4 1 8 9 8 8 0 15 -4 15
-9 0 -4 4 -8 9 -8 17 0 20 29 7 55 -9 18 -16 22 -19 13 -4 -10 -6 -10 -6 0 -1
7 10 23 24 36 13 13 22 26 18 29 -3 4 2 7 13 7 14 0 16 2 5 9 -10 7 -8 12 10
25 22 15 25 15 36 0 7 -9 10 -20 8 -24 -7 -11 40 -21 62 -14 13 4 14 3 5 -4
-20 -14 -5 -65 17 -56 36 16 66 10 69 -13 2 -13 10 -23 18 -23 8 0 14 -4 14
-9 0 -5 8 -12 18 -15 22 -8 44 -53 30 -63 -7 -3 -8 -1 -4 5 4 7 3 12 -2 12 -5
0 -12 -9 -15 -21 -3 -11 -11 -19 -19 -18 -33 4 -39 -1 -28 -22 10 -17 7 -24
-14 -44 -13 -12 -23 -25 -20 -28 3 -2 -7 -12 -21 -21 -14 -9 -25 -25 -25 -35
0 -10 -3 -21 -7 -25 -5 -4 -8 -13 -8 -19 0 -7 -10 -13 -21 -15 -12 -2 -25 -13
-29 -25 -4 -12 -8 -24 -9 -27 -2 -3 -8 -18 -14 -33 -7 -16 -17 -38 -23 -49
-10 -18 -9 -20 5 -15 21 8 20 1 -5 -34 -16 -23 -18 -33 -9 -44 9 -11 6 -17
-14 -30 -14 -10 -26 -23 -26 -31 0 -15 34 -36 44 -27 11 11 7 -7 -13 -55 -10
-26 -22 -60 -27 -77 -5 -16 -24 -40 -43 -52 -35 -24 -91 -31 -91 -12 0 6 8 9
18 7 14 -4 22 3 30 25 9 24 9 28 0 19 -7 -7 -24 -12 -38 -12 -20 0 -29 8 -41
38 -26 58 -32 101 -19 117 10 12 9 15 -6 15 -15 0 -16 2 -5 9 11 7 10 11 -5
20 -11 6 -13 11 -7 11 15 0 13 21 -2 32 -5 4 -16 2 -25 -4 -8 -5 -1 3 17 19
l32 29 -25 -1 c-14 -1 -29 -7 -33 -14 -9 -14 -57 56 -91 131 -11 26 -25 50
-30 53 -5 3 -16 30 -25 60 -8 30 -23 59 -33 64 -17 9 -92 111 -92 125 0 4 -17
30 -38 59 -22 29 -46 66 -55 82 -14 28 -16 28 -23 10 -4 -11 -12 -23 -17 -26
-13 -9 54 -140 101 -197 79 -98 87 -122 45 -140 -25 -10 -24 -10 18 -6 43 5
46 4 72 -33 14 -21 33 -56 41 -79 21 -61 52 -118 109 -204 29 -42 68 -111 87
-153 19 -42 41 -76 48 -77 17 0 15 -20 -3 -20 -10 0 -17 -14 -21 -42 -12 -70
-55 -94 -121 -66 -15 6 -38 21 -50 32 -23 19 -23 19 -23 0 0 -10 -7 -28 -15
-38 -19 -25 -18 -46 1 -71 16 -19 16 -19 12 8 -3 15 -2 27 3 27 14 0 21 -67
10 -88 -11 -20 -9 -21 41 -15 29 3 71 14 93 24 22 11 32 13 23 6 -24 -19 -23
-30 1 -22 14 4 23 0 30 -14 9 -17 7 -20 -12 -24 l-22 -4 21 -8 c15 -5 20 -13
17 -26 -4 -16 0 -19 27 -19 30 0 32 -2 25 -27 -5 -16 -9 -39 -9 -53 -1 -14 -3
-27 -6 -30 -3 -3 -18 -24 -33 -47 -15 -24 -32 -43 -38 -43 -5 0 -7 -4 -4 -10
3 -5 -2 -10 -12 -10 -13 0 -14 -3 -5 -8 29 -19 -53 -61 -148 -77 -25 -4 -80
-20 -123 -36 -95 -35 -139 -36 -200 -6 l-46 24 -20 -21 c-33 -35 -94 -236
-107 -352 l-7 -54 29 5 c16 3 54 10 84 16 30 7 104 14 163 16 139 5 147 1 170
-99 17 -70 31 -98 49 -98 4 0 21 14 38 30 31 31 54 33 43 4 -3 -9 3 -21 16
-30 11 -8 21 -22 21 -30 0 -8 35 -57 77 -109 63 -78 81 -93 99 -89 18 5 22 0
28 -26 5 -29 9 -31 32 -26 24 6 26 5 20 -17 -3 -14 0 -32 9 -43 19 -25 18 -42
-1 -79 -14 -28 -13 -28 26 10 l42 40 16 -25 c12 -16 17 -47 18 -95 2 -100 9
-140 28 -169 9 -15 18 -26 19 -26 2 0 3 17 3 38 0 41 31 94 51 87 7 -2 10 2 7
9 -3 7 2 16 10 19 9 4 16 12 16 19 1 7 11 26 24 41 l23 29 7 -124 c4 -68 11
-127 15 -131 11 -11 -5 -83 -23 -109 -18 -25 0 -62 42 -88 l30 -18 5 42 c3 23
9 49 12 58 4 9 -6 28 -25 49 -18 21 -26 35 -19 38 7 2 17 -2 23 -10 6 -8 23
-13 38 -11 22 3 27 -2 33 -27 3 -17 4 -40 1 -51 -3 -11 -9 -29 -12 -40 -4 -15
-2 -18 10 -14 20 8 20 1 1 -36 -14 -27 -14 -33 6 -75 17 -36 25 -44 40 -40 23
8 23 6 4 -33 -11 -21 -13 -36 -7 -49 6 -10 15 -30 21 -46 13 -34 41 -36 41 -4
0 13 8 31 18 40 17 15 21 17 43 17 6 0 9 6 6 14 -3 7 0 22 8 33 7 10 16 50 20
88 9 94 21 131 43 131 15 0 17 -11 17 -76 0 -49 -4 -78 -12 -83 -19 -12 -16
-37 5 -37 16 -1 16 -1 0 -11 -25 -14 -22 -48 4 -76 17 -18 22 -34 20 -68 -2
-51 2 -54 35 -23 l23 21 0 -41 c0 -30 7 -48 24 -67 14 -15 29 -24 34 -21 6 3
13 -6 16 -20 5 -19 11 -24 24 -19 14 5 15 4 5 -6 -20 -20 -15 -57 7 -69 15 -8
19 -17 15 -31 -5 -15 -3 -17 11 -12 15 5 16 2 11 -23 -4 -22 1 -36 19 -58 24
-27 26 -28 44 -11 11 10 20 23 20 30 0 16 38 50 46 42 4 -4 1 -13 -6 -22 -10
-12 -10 -15 2 -15 7 0 14 -8 15 -17 1 -10 3 -27 6 -38 2 -11 1 -24 -3 -30 -4
-5 -10 -18 -13 -27 -5 -15 33 -17 544 -17 l549 -1 -35 47 c-20 27 -57 77 -82
113 -88 124 -117 147 -208 169 -110 26 -257 91 -314 138 -94 78 -141 126 -164
166 -11 20 -41 53 -65 72 -24 18 -123 111 -220 206 -97 95 -221 213 -275 263
-56 51 -135 139 -188 207 -49 65 -100 124 -112 130 -76 40 -577 384 -577 397
0 4 16 54 35 112 l36 105 -81 82 c-51 52 -80 89 -78 100 5 24 60 59 106 66 51
9 128 50 177 96 73 68 133 80 127 25 -3 -28 -2 -27 55 26 32 30 91 82 131 115
l73 60 -33 7 c-47 10 -108 32 -108 39 0 19 40 34 94 37 139 7 233 8 261 2 17
-3 41 -4 54 -2 22 3 23 7 18 50 -4 26 -11 109 -18 184 -15 167 0 404 31 513
11 38 16 72 12 76 -105 95 -135 112 -217 124 -118 18 -111 19 -158 -24 -47
-44 -57 -49 -57 -28 0 8 -18 40 -40 71 -47 68 -280 346 -289 346 -3 0 -27 -59
-53 -130z"/>
<path d="M12682 3655 c19 -13 64 -62 98 -107 35 -46 75 -96 91 -113 15 -16 43
-64 62 -105 28 -63 146 -224 192 -265 7 -5 28 -33 47 -60 46 -65 74 -90 83
-75 3 5 10 8 15 5 8 -5 21 27 24 61 2 16 -3 20 -19 16 -16 -4 -18 -2 -7 9 17
19 15 29 -5 23 -11 -4 -5 5 12 20 27 24 28 26 5 15 -24 -12 -24 -11 -10 6 16
20 17 20 -35 -1 -8 -3 -15 -2 -15 4 0 6 -8 8 -18 6 -11 -4 -44 20 -98 73 -45
43 -95 90 -112 104 -19 16 -35 44 -42 70 -20 76 -242 339 -286 339 -14 0 -9
-7 18 -25z"/>
<path d="M12407 3633 c12 -10 34 -26 48 -36 42 -30 130 -156 172 -247 34 -72
51 -95 111 -148 98 -87 112 -111 124 -224 2 -15 5 -15 31 -2 l28 15 -20 35
c-11 19 -18 41 -14 50 6 16 -47 70 -139 141 -34 27 -60 61 -99 132 -94 174
-138 228 -234 284 -29 18 -29 18 -8 0z"/>
<path d="M12057 3274 c-2 -2 -48 -13 -103 -24 -128 -26 -158 -38 -143 -56 6
-8 22 -14 36 -14 20 0 23 -4 21 -27 -3 -24 0 -28 22 -27 14 1 29 -5 33 -12 4
-8 19 -14 31 -14 31 0 43 -30 20 -47 -10 -7 -35 -13 -55 -13 -21 0 -60 -5 -87
-11 l-49 -12 13 -36 c7 -20 18 -35 23 -34 6 2 18 -9 28 -23 15 -23 18 -24 29
-10 10 15 12 14 17 -5 10 -38 27 -9 27 46 0 60 6 65 73 65 66 0 87 9 87 36 0
17 -4 22 -15 18 -12 -5 -15 4 -15 49 0 31 -2 62 -5 69 -3 8 4 24 17 38 13 14
23 19 26 12 2 -8 12 -7 34 4 16 8 28 17 26 18 -6 5 -87 14 -91 10z"/>
<path d="M14120 2690 c0 -13 180 -175 349 -314 20 -17 72 -60 116 -96 44 -37
107 -84 140 -105 33 -20 90 -61 126 -90 36 -30 95 -69 130 -87 35 -19 111 -63
169 -98 58 -35 179 -109 270 -164 91 -54 172 -105 181 -113 25 -21 29 -16 29
35 0 36 5 54 20 67 15 14 20 31 20 73 0 51 12 106 30 142 5 10 20 14 45 13 45
-3 302 -79 435 -129 52 -19 114 -42 137 -49 24 -8 58 -21 75 -29 64 -28 337
-125 618 -219 157 -53 384 -130 505 -172 278 -97 302 -105 309 -98 3 4 14 -1
23 -9 16 -14 133 -68 147 -68 3 0 5 175 6 388 l0 388 -38 17 c-134 59 -398
147 -649 216 -240 66 -290 82 -325 105 -13 8 -57 22 -98 32 -41 9 -84 22 -95
29 -11 7 -38 16 -60 19 -22 4 -123 32 -225 63 -265 80 -272 81 -416 102 -83
13 -143 27 -165 40 -64 37 -176 61 -287 61 -139 0 -284 17 -349 42 -53 19 -63
20 -441 8 -213 -6 -397 -13 -409 -16 -12 -3 -24 -12 -27 -19 -5 -15 -8 -15
-151 15 -123 25 -145 28 -145 20z m887 -132 c6 -7 15 -36 21 -65 11 -60 -3
-113 -38 -143 -20 -17 -24 -17 -58 -3 -84 35 -130 64 -179 114 -53 53 -67 89
-40 106 16 10 248 20 268 11 9 -4 21 -13 26 -20z m681 -87 c47 -12 68 -22 70
-34 5 -27 -17 -48 -43 -41 -18 4 -25 1 -30 -16 -9 -27 -48 -24 -53 5 -4 20
-28 45 -44 45 -4 0 -8 -10 -8 -23 0 -32 -23 -60 -46 -55 -16 3 -20 13 -22 61
-5 96 10 101 176 58z"/>
<path d="M11994 2615 c-15 -14 -44 -30 -66 -37 -21 -6 -38 -14 -38 -17 0 -4
26 -19 58 -33 31 -15 77 -41 102 -57 25 -16 48 -30 52 -30 3 -1 0 23 -8 52 -7
28 -14 71 -14 93 0 35 -4 43 -22 48 -34 9 -35 8 -64 -19z"/>
<path d="M11742 1066 c-16 -22 -37 -59 -46 -81 -10 -22 -30 -53 -45 -70 -63
-67 -110 -171 -111 -240 0 -17 -4 -46 -10 -65 -5 -19 -19 -80 -31 -135 -17
-81 -49 -164 -76 -195 -9 -11 -33 35 -33 64 l0 29 -26 -24 c-25 -23 -70 -110
-100 -194 -8 -22 -23 -49 -34 -60 -10 -11 -26 -37 -35 -58 l-15 -37 302 0 303
0 -64 35 c-36 19 -68 40 -72 47 -11 17 44 71 102 99 29 14 47 29 44 37 -2 6 0
12 6 12 5 0 14 11 19 25 10 27 24 32 36 13 5 -7 3 -8 -6 -3 -10 6 -12 4 -7 -8
3 -10 2 -17 -4 -17 -6 0 -6 -6 0 -17 11 -21 11 -21 12 -70 1 -34 2 -35 9 -13
4 14 9 50 9 80 1 30 11 109 22 175 38 227 41 250 41 400 1 116 -3 164 -17 212
-21 75 -36 89 -97 95 -45 5 -47 4 -76 -36z"/>
<path d="M12901 840 c-1 -30 -4 -64 -6 -75 -4 -16 3 -24 37 -39 24 -10 57 -29
75 -42 39 -29 99 -42 221 -47 69 -2 92 0 92 9 0 12 -56 33 -90 34 -8 0 -24 7
-35 16 -11 8 -38 19 -60 25 -22 6 -47 16 -55 23 -8 7 -31 19 -50 26 -19 8 -48
24 -63 37 -16 13 -32 23 -36 23 -5 0 -13 15 -19 33 -10 31 -10 30 -11 -23z"/>
<path d="M14158 325 c-7 -62 -28 -95 -83 -137 -57 -43 -62 -52 -43 -75 7 -9
14 -33 14 -55 1 -21 2 -42 3 -48 1 -6 89 -10 244 -10 215 1 239 2 217 15 -14
8 -35 14 -48 15 -13 0 -22 5 -20 13 2 6 -18 32 -45 56 -26 24 -47 48 -47 53 0
36 -131 204 -163 210 -23 4 -25 1 -29 -37z"/>
<path d="M13235 340 c-3 -5 -32 -10 -63 -10 -31 0 -73 -5 -92 -10 -19 -6 -52
-11 -73 -12 -22 -1 -41 -7 -44 -14 -2 -6 -13 -10 -24 -7 -13 4 -19 0 -19 -11
0 -17 35 -22 45 -6 3 5 14 2 25 -7 10 -9 17 -20 14 -25 -3 -4 0 -8 5 -8 6 0
11 4 11 9 0 15 33 22 41 9 7 -10 11 -10 21 0 17 17 45 15 52 -3 4 -13 29 -15
56 -5 8 3 24 7 37 8 7 1 10 8 7 15 -3 8 6 18 21 25 25 11 25 13 9 37 -18 28
-20 29 -29 15z"/>
<path d="M13028 132 c-47 -4 -58 -18 -61 -81 l-2 -51 90 0 c81 1 93 3 120 25
l30 25 -65 -5 c-61 -5 -66 -4 -66 15 0 20 7 24 37 21 8 -1 23 7 33 18 18 19
17 20 -8 26 -47 9 -71 11 -108 7z"/>
</g>
</svg>
